<svg width="32" height="32" xmlns="http://www.w3.org/2000/svg">

 <g>
  <title>background</title>
  <rect fill="none" id="canvas_background" height="402" width="582" y="-1" x="-1"/>
 </g>
 <g>
  <title>Layer 1</title>
  <path id="svg_1" d="m4.428564,9.190012l23.142872,0c1.064573,0 1.928574,-1.016957 1.928574,-2.269994s-0.864,-2.269995 -1.928574,-2.269995l-23.142872,0c-1.064572,0 -1.928573,1.016958 -1.928573,2.269995s0.864001,2.269994 1.928573,2.269994zm23.142872,4.539991l-23.142872,0c-1.064572,0 -1.928573,1.016958 -1.928573,2.269995s0.864001,2.269997 1.928573,2.269997l23.142872,0c1.064573,0 1.928574,-1.016958 1.928574,-2.269997s-0.864,-2.269995 -1.928574,-2.269995zm0,9.079983l-23.142872,0c-1.064572,0 -1.928573,1.016958 -1.928573,2.269997s0.864001,2.269995 1.928573,2.269995l23.142872,0c1.064573,0 1.928574,-1.016958 1.928574,-2.269995s-0.864,-2.269997 -1.928574,-2.269997z"/>
 </g>
</svg>